<?xml version="1.0" standalone="no"?>
<!DOCTYPE svg PUBLIC "-//W3C//DTD SVG 20010904//EN"
 "http://www.w3.org/TR/2001/REC-SVG-20010904/DTD/svg10.dtd">
<svg version="1.0" xmlns="http://www.w3.org/2000/svg"
 width="460.000000pt" height="460.000000pt" viewBox="0 0 460.000000 460.000000"
 preserveAspectRatio="xMidYMid meet">

<g transform="translate(0.000000,460.000000) scale(0.100000,-0.100000)"
fill="#000000" stroke="none">
<path d="M2339 3871 c-24 -17 -58 -45 -75 -63 -72 -79 -141 -231 -159 -352
-11 -76 -20 -95 -44 -89 -17 4 -21 1 -21 -20 0 -14 -7 -27 -15 -31 -18 -7 -20
-33 -3 -38 7 -3 13 -13 13 -24 0 -11 7 -19 17 -19 10 0 24 -9 33 -20 15 -20
15 -20 30 -1 8 10 21 16 29 13 16 -7 40 16 28 27 -4 4 1 12 11 17 19 11 23 35
6 41 -6 2 -12 15 -13 28 -1 17 -7 24 -17 22 -31 -5 -43 24 -30 75 7 26 16 69
22 96 14 78 80 206 138 270 29 31 57 57 63 57 5 0 21 9 35 20 40 32 3 24 -48
-9z m-209 -556 c17 -21 5 -45 -24 -45 -26 0 -41 31 -23 49 15 15 32 14 47 -4z"/>
<path d="M3112 3834 c-84 -15 -191 -48 -242 -75 -19 -11 -38 -19 -43 -19 -35
0 -241 -182 -289 -255 -95 -144 -93 -137 -93 -280 0 -129 0 -130 38 -209 55
-116 115 -194 267 -347 75 -75 145 -154 154 -174 10 -21 20 -73 24 -119 7
-111 14 -119 116 -139 47 -10 101 -17 120 -17 l36 0 0 -64 0 -65 -77 2 c-57 1
-86 -3 -110 -16 -98 -52 -8 -137 145 -137 51 0 54 -1 48 -22 -3 -13 -6 -44 -6
-69 l0 -47 -44 -6 c-25 -4 -59 -17 -78 -29 -26 -18 -34 -30 -36 -61 -5 -53 3
-79 34 -115 19 -23 34 -31 59 -31 45 0 65 34 79 134 8 50 17 82 26 86 8 4 28
14 44 21 33 16 66 63 66 96 0 28 -45 63 -81 63 -28 0 -29 2 -29 49 l0 48 65 6
c105 10 150 44 143 109 -3 27 -10 36 -46 55 -2 1 1 19 7 40 32 105 80 155 226
233 44 24 99 58 122 77 102 83 198 302 223 508 11 87 10 112 -4 188 -18 93
-44 147 -117 239 -131 168 -184 209 -369 291 -154 67 -233 78 -378 51z m278
-34 c140 -53 259 -120 317 -178 54 -53 154 -177 196 -244 27 -43 57 -167 57
-235 0 -173 -98 -449 -196 -548 -47 -48 -118 -95 -167 -111 -21 -7 -76 -44
-105 -71 -7 -7 -16 -13 -20 -13 -4 0 -22 -23 -41 -50 -19 -28 -37 -50 -40 -50
-11 0 -33 83 -39 144 -4 50 -3 58 10 53 85 -32 174 -8 221 60 38 55 39 145 3
254 -18 56 -27 114 -35 226 -6 83 -14 159 -17 169 -4 11 -22 37 -39 59 -18 22
-36 51 -40 65 -4 14 -21 39 -37 57 -30 31 -31 41 -7 74 28 38 -27 107 -75 95
-13 -3 -35 -17 -49 -32 -27 -27 -47 -25 -47 5 0 25 -26 45 -50 38 -10 -3 -35
3 -53 13 -19 10 -51 22 -71 26 -27 4 -40 13 -47 31 -12 32 -30 37 -73 19 -43
-18 -46 -40 -16 -116 l20 -50 -47 3 c-39 2 -48 -1 -51 -17 -2 -10 2 -22 8 -26
15 -9 4 -30 -15 -30 -8 0 -19 9 -25 20 -22 41 -120 13 -120 -35 0 -13 10 -45
21 -72 13 -28 23 -73 24 -108 3 -90 3 -90 30 -129 14 -21 37 -65 51 -99 39
-96 45 -107 93 -182 41 -64 74 -100 167 -184 27 -24 34 -40 44 -102 6 -41 23
-121 36 -177 34 -145 37 -136 -47 -128 -39 3 -88 15 -109 26 -42 22 -44 26
-54 149 -8 86 -40 137 -156 244 -251 232 -364 450 -330 638 19 106 92 224 191
309 35 30 78 67 94 83 27 26 182 107 205 107 5 0 31 7 57 16 114 39 278 41
373 4z m-390 -159 c0 -6 14 -25 30 -43 17 -18 28 -25 25 -16 -6 14 2 13 52 -8
32 -13 70 -24 85 -24 31 0 45 -31 34 -76 -5 -17 -3 -23 4 -19 5 3 10 13 10 21
0 8 8 14 18 14 10 0 29 11 42 25 56 60 130 0 85 -69 -15 -22 -14 -26 19 -65
19 -22 40 -57 46 -76 6 -19 16 -35 21 -35 6 0 21 -24 34 -52 20 -43 26 -80 34
-198 7 -108 16 -165 35 -225 31 -96 33 -168 7 -210 -64 -103 -132 -110 -311
-33 -98 41 -188 99 -252 162 -54 52 -127 168 -165 259 -17 43 -44 99 -59 125
-21 35 -28 61 -29 107 -1 37 -12 87 -29 133 -26 71 -27 74 -9 88 29 22 65 29
74 13 20 -34 27 -40 46 -43 25 -5 37 28 27 71 -6 24 -5 26 17 19 64 -20 69
-20 69 7 0 13 -9 46 -21 72 -20 44 -20 48 -3 66 17 19 64 27 64 10z m253
-1100 l67 -31 0 -54 c0 -29 8 -77 19 -107 10 -31 22 -75 26 -99 l7 -43 -47 6
c-26 4 -60 7 -74 7 -29 0 -25 -11 -74 225 -30 141 -30 147 -10 137 10 -5 48
-24 86 -41z m155 -363 c18 -15 15 -72 -6 -91 -27 -24 -111 -41 -144 -29 -24
10 -26 16 -30 72 -1 34 -1 64 2 67 8 8 164 -9 178 -19z m-210 -133 c7 -3 12
-23 12 -55 l0 -50 -57 0 c-35 0 -75 8 -100 19 -67 31 -68 85 0 94 32 4 121 -1
145 -8z m93 -135 c14 -8 19 -21 19 -49 0 -40 -18 -64 -57 -74 -26 -6 -28 5
-17 87 7 48 18 55 55 36z m-97 -207 c-7 -61 -29 -124 -47 -135 -11 -7 -47 12
-47 25 0 5 -7 15 -15 23 -9 9 -15 34 -15 58 0 59 27 82 103 85 l28 1 -7 -57z"/>
<path d="M3060 3540 c0 -24 -17 -26 -40 -5 -20 18 -50 10 -50 -13 0 -13 2 -13
13 2 12 16 14 16 26 2 8 -9 24 -16 37 -16 19 0 24 5 24 25 0 14 -2 25 -5 25
-3 0 -5 -9 -5 -20z"/>
<path d="M3177 3533 c-9 -9 -9 -71 1 -76 4 -3 7 15 8 39 1 47 1 48 -9 37z"/>
<path d="M3321 3518 c-1 -17 45 -56 54 -46 3 3 -6 11 -20 18 -13 7 -26 20 -28
29 -4 14 -5 13 -6 -1z"/>
<path d="M2767 3404 c-16 -9 -27 -18 -24 -20 7 -7 57 18 57 28 0 10 1 10 -33
-8z"/>
<path d="M3079 3399 c-51 -30 -63 -53 -44 -87 l15 -27 -3 32 c-1 18 3 31 8 30
6 -1 10 -10 9 -19 0 -10 4 -18 9 -18 5 0 6 15 3 33 -6 32 -4 34 41 54 39 17
43 21 23 22 -14 0 -41 -9 -61 -20z"/>
<path d="M3276 3335 c-27 -30 -48 -45 -70 -48 -30 -4 -30 -4 5 -5 30 -2 40 3
54 26 10 15 27 35 39 44 11 9 18 19 15 22 -3 3 -22 -15 -43 -39z"/>
<path d="M2850 3355 c0 -9 -11 -41 -24 -73 -13 -31 -27 -79 -30 -107 l-5 -50
13 55 c7 30 20 69 28 85 18 33 34 105 24 105 -3 0 -6 -7 -6 -15z"/>
<path d="M3108 3283 c7 -3 16 -2 19 1 4 3 -2 6 -13 5 -11 0 -14 -3 -6 -6z"/>
<path d="M3203 3250 c-18 -12 -33 -27 -33 -33 0 -6 10 -1 23 10 31 29 61 36
123 28 78 -9 114 -42 115 -103 1 -43 1 -45 9 -18 12 39 -13 92 -53 113 -17 8
-58 18 -92 20 -49 3 -66 0 -92 -17z"/>
<path d="M2943 3253 c9 -2 25 -2 35 0 9 3 1 5 -18 5 -19 0 -27 -2 -17 -5z"/>
<path d="M2871 3221 c-12 -16 -21 -37 -20 -48 0 -13 2 -14 6 -3 12 38 29 63
48 71 16 6 17 8 3 8 -9 1 -26 -12 -37 -28z"/>
<path d="M3037 3230 c18 -10 44 -37 59 -60 15 -22 29 -38 32 -36 12 13 -88
116 -113 116 -5 0 4 -9 22 -20z"/>
<path d="M3222 3217 c-17 -20 -12 -40 6 -28 8 5 12 16 10 26 -3 17 -4 17 -16
2z"/>
<path d="M2993 3195 c-12 -13 -5 -29 15 -32 13 -3 16 15 4 33 -5 9 -10 9 -19
-1z"/>
<path d="M3161 3178 c-2 -45 15 -72 60 -97 31 -18 40 -20 30 -8 -7 9 -19 17
-26 17 -20 0 -48 38 -55 78 -6 30 -8 32 -9 10z"/>
<path d="M3395 3149 c-10 -15 3 -25 16 -12 7 7 7 13 1 17 -6 3 -14 1 -17 -5z"/>
<path d="M3245 3123 c-7 -19 9 -38 24 -29 16 10 14 33 -3 39 -8 3 -17 -1 -21
-10z"/>
<path d="M3457 3126 c-4 -10 -3 -14 2 -11 6 3 14 -14 19 -37 8 -37 10 -39 11
-13 0 17 -6 41 -13 54 -11 20 -14 21 -19 7z"/>
<path d="M2887 3106 c-3 -7 -2 -18 2 -25 10 -16 41 -3 35 14 -8 19 -31 26 -37
11z"/>
<path d="M3430 3055 c0 -25 3 -45 8 -45 4 0 7 20 7 45 0 25 -3 45 -7 45 -5 0
-8 -20 -8 -45z"/>
<path d="M2851 3070 c0 -14 4 -32 9 -40 9 -13 10 -13 9 0 -1 8 -5 26 -9 40
l-8 25 -1 -25z"/>
<path d="M3070 3080 c0 -5 5 -10 11 -10 5 0 7 5 4 10 -3 6 -8 10 -11 10 -2 0
-4 -4 -4 -10z"/>
<path d="M3350 3080 c0 -5 5 -10 10 -10 6 0 10 5 10 10 0 6 -4 10 -10 10 -5 0
-10 -4 -10 -10z"/>
<path d="M3157 3063 c-2 -5 -7 -25 -11 -46 -4 -21 -10 -45 -13 -53 -3 -8 0
-14 6 -14 5 0 13 23 17 51 l7 52 18 -34 c22 -42 25 -24 3 19 -16 33 -20 37
-27 25z"/>
<path d="M3123 3025 c0 -22 2 -30 4 -17 2 12 2 30 0 40 -3 9 -5 -1 -4 -23z"/>
<path d="M3270 3050 c0 -5 5 -12 10 -15 6 -4 8 -10 5 -15 -3 -4 6 -15 20 -24
37 -24 33 3 -5 36 -16 14 -30 22 -30 18z"/>
<path d="M3241 3030 c0 -14 28 -72 29 -59 0 4 -7 22 -15 40 -8 19 -14 27 -14
19z"/>
<path d="M2890 2985 c13 -14 26 -25 28 -25 3 0 -5 11 -18 25 -13 14 -26 25
-28 25 -3 0 5 -11 18 -25z"/>
<path d="M2970 3000 c0 -5 5 -10 10 -10 6 0 10 5 10 10 0 6 -4 10 -10 10 -5 0
-10 -4 -10 -10z"/>
<path d="M2940 2949 c12 -8 9 -9 -12 -5 -16 4 -28 3 -28 -2 0 -4 9 -8 21 -9
11 -1 36 -14 55 -28 20 -15 38 -24 41 -21 8 8 -62 76 -78 76 -11 0 -11 -3 1
-11z m35 -27 c-3 -3 -11 0 -18 7 -9 10 -8 11 6 5 10 -3 15 -9 12 -12z"/>
<path d="M3270 2957 c0 -15 30 -80 36 -74 3 3 -4 22 -15 44 -11 21 -20 34 -21
30z"/>
<path d="M3210 2944 c1 -16 29 -60 29 -44 0 8 -6 24 -14 34 -8 11 -15 16 -15
10z"/>
<path d="M3493 2870 c0 -41 2 -58 4 -37 2 20 2 54 0 75 -2 20 -4 3 -4 -38z"/>
<path d="M2917 2903 c20 -54 129 -172 223 -242 30 -22 35 -24 15 -6 -107 96
-186 179 -210 219 -28 47 -39 59 -28 29z"/>
<path d="M3250 2843 c0 -4 5 -15 10 -23 8 -13 10 -13 10 2 0 9 -4 20 -10 23
-5 3 -10 3 -10 -2z"/>
<path d="M3321 2835 c0 -5 8 -26 19 -45 11 -19 19 -30 19 -25 0 6 -8 26 -19
45 -11 19 -19 31 -19 25z"/>
<path d="M3501 2775 c0 -5 6 -21 14 -35 8 -14 14 -20 14 -15 0 6 -6 21 -14 35
-8 14 -14 21 -14 15z"/>
<path d="M3280 2769 c0 -4 7 -22 15 -40 8 -19 14 -27 14 -19 0 14 -28 72 -29
59z"/>
<path d="M3360 2741 c0 -5 5 -13 10 -16 6 -3 10 -2 10 4 0 5 -4 13 -10 16 -5
3 -10 2 -10 -4z"/>
<path d="M3530 2668 c-3 -26 -1 -43 3 -39 5 5 7 26 5 47 l-3 39 -5 -47z"/>
<path d="M3310 2684 c1 -12 39 -61 40 -51 0 5 -9 20 -20 34 -11 14 -20 22 -20
17z"/>
<path d="M3390 2683 c1 -4 12 -21 26 -38 l26 -30 -16 32 c-15 31 -36 52 -36
36z"/>
<path d="M3381 2598 c13 -21 25 -33 27 -28 2 5 -9 22 -23 37 l-27 28 23 -37z"/>
<path d="M3210 2614 c0 -6 65 -34 77 -34 9 1 -58 39 -69 40 -5 0 -8 -2 -8 -6z"/>
<path d="M3463 2613 c9 -2 25 -2 35 0 9 3 1 5 -18 5 -19 0 -27 -2 -17 -5z"/>
<path d="M3310 2570 c8 -5 22 -9 30 -9 10 0 8 3 -5 9 -27 12 -43 12 -25 0z"/>
<path d="M3368 2553 c7 -3 16 -2 19 1 4 3 -2 6 -13 5 -11 0 -14 -3 -6 -6z"/>
<path d="M2321 3652 c-18 -19 -22 -55 -7 -64 7 -5 5 -16 -7 -37 -20 -34 -68
-207 -74 -266 -5 -41 29 -135 47 -135 13 0 13 47 1 54 -5 4 -12 24 -16 46 -13
76 61 328 93 315 39 -15 66 39 42 84 -12 23 -60 25 -79 3z m57 -35 c2 -12 -3
-17 -17 -17 -12 0 -21 6 -21 13 0 31 32 34 38 4z"/>
<path d="M4114 3635 c-5 -11 -17 -15 -43 -13 -33 3 -36 1 -39 -26 -2 -18 -11
-30 -23 -33 -20 -6 -26 -37 -8 -48 5 -4 8 -19 5 -33 -7 -31 5 -54 25 -52 28 4
39 0 39 -15 0 -23 31 -31 44 -12 8 9 25 15 47 14 27 -2 34 2 33 16 -1 10 9 25
22 34 26 17 31 45 11 62 -8 6 -12 23 -9 39 3 26 0 30 -27 35 -17 4 -31 13 -31
21 0 7 -7 17 -16 20 -22 8 -24 8 -30 -9z m36 -96 c14 -25 8 -44 -19 -58 -30
-16 -66 17 -57 52 5 22 12 27 36 27 19 0 33 -7 40 -21z"/>
<path d="M4065 3311 c-16 -4 -29 -13 -27 -19 1 -7 -5 -15 -13 -18 -17 -7 -21
-34 -5 -34 6 0 8 -11 4 -25 -5 -19 -2 -25 9 -25 9 0 20 -7 24 -15 11 -18 83
-9 83 11 0 7 7 17 17 22 11 7 14 15 8 28 -5 11 -9 24 -10 29 -1 13 -42 55 -52
54 -5 -1 -21 -4 -38 -8z m52 -61 c4 -23 -13 -44 -31 -37 -9 4 -16 18 -16 32 0
22 4 26 22 23 13 -2 24 -10 25 -18z"/>
<path d="M4317 3238 c-3 -7 -2 -74 1 -148 5 -145 -7 -229 -50 -340 -24 -62
-78 -157 -120 -211 -31 -41 -34 -49 -15 -49 15 0 104 127 135 195 68 145 100
323 80 443 -9 57 -9 77 0 92 16 26 15 30 -7 30 -11 0 -21 -6 -24 -12z"/>
<path d="M4025 2583 c-39 -99 -60 -130 -137 -205 -66 -65 -108 -85 -108 -53 0
8 -3 15 -7 16 -5 0 -23 2 -40 5 -18 2 -33 0 -33 -5 0 -5 -9 -11 -21 -14 -13
-3 -20 -13 -18 -24 1 -10 -2 -26 -6 -37 -6 -13 -3 -21 8 -28 10 -5 17 -16 17
-25 0 -10 6 -14 19 -10 10 2 26 0 35 -5 11 -6 18 -5 22 5 3 8 14 17 26 20 15
4 18 11 13 26 -4 12 -2 21 4 21 6 0 11 6 11 13 0 6 19 23 41 37 68 41 135 124
184 225 25 52 45 97 45 100 0 3 -6 5 -14 5 -8 0 -26 -29 -41 -67z m-275 -307
c0 -31 -12 -39 -35 -22 -23 16 -13 46 15 46 15 0 20 -7 20 -24z"/>
<path d="M1450 2439 c9 -16 8 -28 -3 -52 -8 -18 -34 -81 -57 -142 -24 -60 -49
-124 -56 -142 -8 -17 -14 -36 -14 -42 0 -7 -6 -22 -14 -34 -8 -12 -18 -39 -21
-59 l-7 -38 363 0 c316 1 360 3 333 14 -40 18 -64 66 -64 128 l0 50 37 -49
c44 -57 69 -79 136 -115 53 -30 98 -35 160 -17 l37 10 0 75 0 75 -27 -26 c-75
-69 -220 -50 -303 40 l-25 28 35 -19 c49 -25 171 -26 222 0 54 26 84 60 98
110 22 80 -15 147 -106 187 -42 19 -71 23 -219 27 -139 3 -168 2 -157 -9 9
-10 12 -72 12 -240 0 -125 -3 -234 -6 -243 -9 -25 -32 -19 -48 12 -8 15 -30
68 -49 117 -20 50 -42 104 -51 120 -9 17 -16 37 -16 46 0 8 -4 19 -8 25 -5 5
-24 48 -42 97 l-34 87 -58 0 c-56 0 -58 -1 -48 -21z m635 -25 c28 -9 58 -24
69 -33 46 -40 60 -124 31 -185 -17 -34 -84 -76 -123 -76 -37 0 -106 31 -129
59 -21 24 -23 36 -23 143 l0 117 63 -5 c34 -2 85 -11 112 -20z m-594 -51 c16
-49 64 -183 73 -204 6 -15 1 -14 -47 2 -53 18 -73 17 -130 -6 -15 -7 -15 1 8
61 14 38 36 95 47 127 12 31 25 57 29 57 4 0 13 -17 20 -37z m31 -219 c9 -3
31 -21 47 -40 38 -42 42 -98 11 -132 -35 -38 -146 -26 -197 21 -18 16 -23 31
-23 67 0 83 58 113 162 84z"/>
<path d="M253 2439 c15 -9 17 -32 17 -244 0 -199 -2 -236 -16 -249 -14 -15 -6
-16 93 -15 66 0 100 3 88 8 -53 22 -75 82 -75 203 l0 88 37 -20 c27 -14 57
-20 103 -20 124 0 166 -51 137 -165 -9 -38 -20 -55 -46 -72 l-34 -23 107 0
c98 0 106 1 92 16 -14 13 -16 49 -16 240 0 136 4 233 10 245 10 18 6 19 -92
19 -88 0 -100 -2 -79 -13 50 -26 63 -57 68 -173 l6 -109 -21 18 c-14 13 -52
23 -124 32 -93 12 -105 16 -126 42 -18 22 -22 37 -19 69 6 60 37 117 67 125
14 4 -24 7 -85 8 -79 0 -105 -2 -92 -10z"/>
<path d="M828 2438 c17 -17 17 -479 0 -496 -9 -9 35 -12 199 -12 l211 0 6 68
c4 37 9 87 12 112 l5 45 -29 -61 c-46 -96 -127 -144 -243 -144 l-59 0 0 141 0
142 41 -7 c64 -10 100 -41 136 -116 11 -23 12 -22 8 15 -3 22 -7 61 -10 88
l-6 47 -85 0 -84 0 0 89 0 88 63 -4 c116 -7 215 -79 232 -169 3 -19 10 -32 14
-30 7 5 0 88 -15 179 l-6 37 -201 0 c-156 0 -198 -3 -189 -12z"/>
<path d="M2312 2368 c-7 -46 -12 -96 -12 -113 0 -29 1 -28 20 14 31 68 79 121
128 142 24 10 46 19 48 19 9 0 3 -377 -6 -411 -11 -39 -43 -74 -75 -82 -11 -3
48 -5 130 -5 138 -1 147 0 117 13 -22 10 -39 28 -52 57 -17 38 -20 66 -20 236
0 105 2 192 4 192 10 0 92 -40 106 -52 30 -26 68 -84 74 -116 4 -17 11 -32 15
-32 6 0 -2 96 -15 188 l-5 32 -223 0 -223 0 -11 -82z"/>
<path d="M1347 1868 c10 -29 8 -95 -4 -111 -5 -7 -21 -43 -36 -82 -100 -267
-254 -662 -264 -678 -3 -4 330 -6 739 -5 l743 3 66 28 c73 31 126 73 158 127
30 50 30 159 -1 209 -42 70 -117 115 -228 138 l-34 6 53 18 c109 37 161 91
161 165 0 45 -34 102 -71 121 -109 56 -117 57 -424 60 -244 3 -286 2 -265 -9
l25 -14 3 -408 c2 -420 1 -436 -37 -436 -30 1 -56 35 -90 120 -19 47 -44 110
-57 140 -13 30 -57 143 -99 250 -42 107 -80 204 -85 215 -5 11 -22 52 -39 90
l-30 70 -96 3 -97 3 9 -23z m1089 -57 c28 -12 67 -38 85 -57 31 -32 34 -40 34
-98 0 -56 -3 -66 -25 -85 -14 -11 -41 -26 -60 -33 -44 -16 -239 -16 -297 1
l-43 12 0 119 c0 72 5 130 12 146 l12 27 116 -5 c89 -4 127 -10 166 -27z
m-1023 -66 c39 -98 146 -410 141 -414 -3 -3 -8 -1 -12 5 -4 6 -27 22 -52 35
-37 19 -60 24 -127 24 -69 0 -86 -4 -112 -23 -20 -14 -31 -18 -31 -10 1 18 31
106 73 208 18 47 46 118 62 158 15 41 31 70 34 65 4 -4 15 -26 24 -48z m961
-271 c37 -8 85 -23 105 -34 153 -80 200 -270 90 -364 -81 -69 -270 -76 -376
-14 -53 32 -63 75 -63 268 l0 170 88 -6 c48 -3 118 -12 156 -20z m-960 -114
c114 -18 195 -105 196 -208 0 -127 -77 -165 -256 -125 -99 22 -136 54 -154
134 -22 98 20 180 104 200 44 10 44 10 110 -1z"/>
<path d="M260 1872 c0 -4 9 -13 20 -20 19 -12 20 -23 20 -415 0 -416 -1 -426
-40 -440 -8 -3 155 -6 363 -6 l377 -1 0 40 c0 22 7 88 15 147 8 59 17 125 20
146 8 56 -16 43 -36 -19 -35 -107 -121 -207 -217 -251 -50 -23 -74 -27 -190
-31 l-133 -5 4 344 c3 257 7 354 17 382 19 54 85 117 121 117 16 0 29 5 29 10
0 6 -68 10 -185 10 -102 0 -185 -3 -185 -8z"/>
<path d="M1014 1555 c-4 -9 -11 -15 -18 -14 -26 3 -36 -2 -36 -19 0 -10 -5
-23 -12 -30 -9 -9 -9 -15 0 -24 7 -7 12 -20 12 -30 0 -10 8 -21 18 -24 9 -3
25 -10 35 -15 14 -8 24 -6 35 4 10 8 23 12 29 10 7 -3 16 4 19 14 3 10 10 26
16 37 6 12 6 22 -1 29 -6 6 -11 19 -11 29 0 17 -10 22 -36 19 -7 -1 -14 5 -18
14 -3 8 -10 15 -16 15 -6 0 -13 -7 -16 -15z m41 -75 c0 -18 -6 -26 -23 -28
-24 -4 -38 18 -28 44 3 9 15 14 28 12 17 -2 23 -10 23 -28z"/>
</g>
</svg>
